{
  "accessors": [
    {
      "bufferView": 2,
      "componentType": 5126,
      "count": 65532,
      "max": [
        3.19350004196167,
        0.972100019454956,
        1.5642999410629272
      ],
      "min": [
        -3.078200101852417,
        -0.8572999835014343,
        0.16760000586509705
      ],
      "type": "VEC3"
    },
    {
      "bufferView": 2,
      "byteOffset": 786384,
      "componentType": 5126,
      "count": 65532,
      "max": [
        0.9999938011169434,
        0.9999995231628418,
        0.999998927116394
      ],
      "min": [
        -0.9999973773956299,
        -0.9999984502792358,
        -0.9999822378158569
      ],
      "type": "VEC3"
    },
    {
      "bufferView": 3,
      "componentType": 5126,
      "count": 65532,
      "max": [
        0.9999250769615173,
        0.9999998807907104,
        0.9999417662620544,
        1.0
      ],
      "min": [
        -0.9999709129333496,
        -0.9999977350234985,
        -0.9999187588691711,
        -1.0
      ],
      "type": "VEC4"
    },
    {
      "bufferView": 1,
      "componentType": 5126,
      "count": 65532,
      "max": [
        0.9989999532699585,
        0.9748656153678894
      ],
      "min": [
        0.0009805778972804546,
        0.0010097569320350885
      ],
      "type": "VEC2"
    },
    {
      "bufferView": 1,
      "byteOffset": 524256,
      "componentType": 5126,
      "count": 65532,
      "max": [
        0.9989999532699585,
        0.9748656153678894
      ],
      "min": [
        0.0009805778972804546,
        0.0010097569320350885
      ],
      "type": "VEC2"
    },
    {
      "bufferView": 0,
      "componentType": 5125,
      "count": 83082,
      "type": "SCALAR"
    },
    {
      "bufferView": 2,
      "byteOffset": 1572768,
      "componentType": 5126,
      "count": 52147,
      "max": [
        3.195499897003174,
        0.972100019454956,
        1.5642999410629272
      ],
      "min": [
        -3.078200101852417,
        -0.8561999797821045,
        0.16760000586509705
      ],
      "type": "VEC3"
    },
    {
      "bufferView": 2,
      "byteOffset": 2198532,
      "componentType": 5126,
      "count": 52147,
      "max": [
        0.9999986886978149,
        0.9999972581863403,
        0.9999908208847046
      ],
      "min": [
        -0.9999861717224121,
        -0.9999887943267822,
        -0.9999804496765137
      ],
      "type": "VEC3"
    },
    {
      "bufferView": 3,
      "byteOffset": 1048512,
      "componentType": 5126,
      "count": 52147,
      "max": [
        0.99998939037323,
        0.9999918937683105,
        0.9999632835388184,
        1.0
      ],
      "min": [
        -0.999685525894165,
        -0.9999985694885254,
        -0.9997942447662354,
        -1.0
      ],
      "type": "VEC4"
    },
    {
      "bufferView": 1,
      "byteOffset": 1048512,
      "componentType": 5126,
      "count": 52147,
      "max": [
        0.9990200400352478,
        0.9755154252052307
      ],
      "min": [
        0.0009804589208215475,
        0.0010480673518031836
      ],
      "type": "VEC2"
    },
    {
      "bufferView": 1,
      "byteOffset": 1465688,
      "componentType": 5126,
      "count": 52147,
      "max": [
        0.9990200400352478,
        0.9755154252052307
      ],
      "min": [
        0.0009804589208215475,
        0.0010480673518031836
      ],
      "type": "VEC2"
    },
    {
      "bufferView": 0,
      "byteOffset": 332328,
      "componentType": 5125,
      "count": 66906,
      "type": "SCALAR"
    }
  ],
  "asset": {
    "extras": {
      "author": "Scottish Maritime Museum (https://sketchfab.com/ScottishMaritimeMuseum)",
      "license": "CC0-1.0 (http://creativecommons.org/publicdomain/zero/1.0/)",
      "source": "https://sketchfab.com/3d-models/venus-a-shetland-fourareen-ce4d6915e1d041459e08f2d8da521e86",
      "title": "\"Venus\", a Shetland fourareen"
    },
    "generator": "Sketchfab-12.67.0",
    "version": "2.0"
  },
  "bufferViews": [
    {
      "buffer": 0,
      "byteLength": 599952,
      "name": "floatBufferViews",
      "target": 34963
    },
    {
      "buffer": 0,
      "byteLength": 1882864,
      "byteOffset": 599952,
      "byteStride": 8,
      "name": "floatBufferViews",
      "target": 34962
    },
    {
      "buffer": 0,
      "byteLength": 2824296,
      "byteOffset": 2482816,
      "byteStride": 12,
      "name": "floatBufferViews",
      "target": 34962
    },
    {
      "buffer": 0,
      "byteLength": 1882864,
      "byteOffset": 5307112,
      "byteStride": 16,
      "name": "floatBufferViews",
      "target": 34962
    }
  ],
  "buffers": [
    {
      "byteLength": 7189976,
      "uri": "scene.bin"
    }
  ],
  "images": [
    {
      "uri": "textures/Material_25_baseColor.webp"
    },
    {
      "uri": "textures/Material_25_normal.webp"
    }
  ],
  "materials": [
    {
      "doubleSided": true,
      "name": "Material_25",
      "normalTexture": {
        "index": 1,
        "texCoord": 1
      },
      "pbrMetallicRoughness": {
        "baseColorTexture": {
          "index": 0
        },
        "metallicFactor": 0.0380681818
      }
    }
  ],
  "meshes": [
    {
      "name": "Venus50K_8KTx_Material #25_0",
      "primitives": [
        {
          "attributes": {
            "NORMAL": 1,
            "POSITION": 0,
            "TANGENT": 2,
            "TEXCOORD_0": 3,
            "TEXCOORD_1": 4
          },
          "indices": 5,
          "material": 0,
          "mode": 4
        }
      ]
    },
    {
      "name": "Venus50K_8KTx_Material #25_0",
      "primitives": [
        {
          "attributes": {
            "NORMAL": 7,
            "POSITION": 6,
            "TANGENT": 8,
            "TEXCOORD_0": 9,
            "TEXCOORD_1": 10
          },
          "indices": 11,
          "material": 0,
          "mode": 4
        }
      ]
    }
  ],
  "nodes": [
    {
      "children": [
        1
      ],
      "matrix": [
        0.8602727651596069,
        0.0,
        0.0,
        0.0,
        0.0,
        1.9101892626762916e-16,
        -0.8602727651596069,
        0.0,
        0.0,
        0.8602727651596069,
        1.9101892626762916e-16,
        0.0,
        0.0,
        0.0,
        0.0,
        1.0
      ],
      "name": "Sketchfab_model"
    },
    {
      "children": [
        2
      ],
      "matrix": [
        1.0,
        0.0,
        0.0,
        0.0,
        0.0,
        0.0,
        1.0,
        0.0,
        0.0,
        -1.0,
        0.0,
        0.0,
        0.0,
        0.0,
        0.0,
        1.0
      ],
      "name": "bd048075be8b48288c6fe8dcc095162b.fbx"
    },
    {
      "children": [
        3
      ],
      "name": "RootNode"
    },
    {
      "children": [
        4,
        5
      ],
      "matrix": [
        1.0,
        0.0,
        0.0,
        0.0,
        0.0,
        2.220446049250313e-16,
        -1.0,
        0.0,
        0.0,
        1.0,
        2.220446049250313e-16,
        0.0,
        0.0,
        0.0,
        0.0,
        1.0
      ],
      "name": "Venus50K_8KTx"
    },
    {
      "mesh": 0,
      "name": "Venus50K_8KTx_Material #25_0"
    },
    {
      "mesh": 1,
      "name": "Venus50K_8KTx_Material #25_0"
    }
  ],
  "samplers": [
    {
      "magFilter": 9729,
      "minFilter": 9987,
      "wrapS": 10497,
      "wrapT": 10497
    }
  ],
  "scene": 0,
  "scenes": [
    {
      "name": "Sketchfab_Scene",
      "nodes": [
        0
      ]
    }
  ],
  "textures": [
    {
      "sampler": 0,
      "source": 0
    },
    {
      "sampler": 0,
      "source": 1
    }
  ]
}
